<svg width="24" height="24" viewBox="0 0 24 24" fill="none" xmlns="http://www.w3.org/2000/svg">
<path fill-rule="evenodd" clip-rule="evenodd" d="M6.59221 9.56594L5 7.07811L6.68454 6L7.98954 8.03905H18.4603L15.4603 14.0391H9.27608L6.59221 9.56594ZM9.20846 10.0391L10.4085 12.0391H14.2242L15.2242 10.0391H9.20846Z" fill="white"/>
<path d="M11.8423 16.5391C11.8423 17.3675 11.1707 18.0391 10.3423 18.0391C9.51384 18.0391 8.84227 17.3675 8.84227 16.5391C8.84227 15.7106 9.51384 15.0391 10.3423 15.0391C11.1707 15.0391 11.8423 15.7106 11.8423 16.5391Z" fill="white"/>
<path d="M14.3423 18.0391C15.1707 18.0391 15.8423 17.3675 15.8423 16.5391C15.8423 15.7106 15.1707 15.0391 14.3423 15.0391C13.5138 15.0391 12.8423 15.7106 12.8423 16.5391C12.8423 17.3675 13.5138 18.0391 14.3423 18.0391Z" fill="white"/>
</svg>
