<svg width="17" height="17" viewBox="0 0 17 17" fill="none" xmlns="http://www.w3.org/2000/svg">
    <path fill-rule="evenodd" clip-rule="evenodd" d="M10.0865 11.4424C9.48409 11.7698 8.79371 11.9557 8.0599 11.9557C5.71269 11.9557 3.8099 10.053 3.8099 7.70575C3.8099 5.35854 5.71269 3.45575 8.0599 3.45575C10.4071 3.45575 12.3099 5.35854 12.3099 7.70575C12.3099 8.80471 11.8928 9.80625 11.2082 10.5607L13.1901 12.5426L12.1884 13.5443L10.0865 11.4424ZM10.8932 7.70575C10.8932 9.27056 9.6247 10.5391 8.0599 10.5391C6.49509 10.5391 5.22657 9.27056 5.22657 7.70575C5.22657 6.14094 6.49509 4.87242 8.0599 4.87242C9.6247 4.87242 10.8932 6.14094 10.8932 7.70575Z" fill="black"/>
</svg>
